<svg xmlns="http://www.w3.org/2000/svg" xmlns:xlink="http://www.w3.org/1999/xlink" viewBox="0 0 1920 1080"><defs><style>.cls-1{fill:url(#linear-gradient);}.cls-2{fill:url(#linear-gradient-2);}.cls-3{fill:url(#linear-gradient-3);}.cls-4{fill:url(#linear-gradient-4);}.cls-5{fill:url(#linear-gradient-5);}.cls-6{fill:url(#linear-gradient-6);}.cls-40,.cls-7{fill:none;}.cls-8{isolation:isolate;}.cls-9{fill:#242d32;}.cls-10{mix-blend-mode:exclusion;opacity:0.26;}.cls-11{clip-path:url(#clip-path);}.cls-12{mask:url(#mask);}.cls-13{mix-blend-mode:color-dodge;}.cls-14,.cls-15,.cls-16,.cls-17,.cls-18,.cls-19,.cls-20,.cls-21,.cls-22,.cls-23,.cls-24,.cls-25,.cls-26,.cls-27,.cls-28,.cls-30,.cls-31,.cls-36,.cls-43,.cls-44,.cls-45,.cls-46,.cls-47,.cls-48,.cls-49,.cls-50,.cls-51,.cls-52,.cls-53,.cls-54,.cls-55,.cls-56,.cls-57,.cls-59{fill:#50899c;}.cls-14{opacity:0.16;}.cls-15{opacity:0.77;}.cls-16{opacity:0.6;}.cls-17{opacity:0.47;}.cls-18{opacity:0.19;}.cls-19{opacity:0.96;}.cls-20{opacity:0.99;}.cls-21{opacity:0.06;}.cls-22{opacity:0.41;}.cls-23{opacity:0.24;}.cls-24{opacity:0.71;}.cls-25{opacity:0.13;}.cls-26{opacity:0.22;}.cls-27{opacity:0.81;}.cls-28{opacity:0.78;}.cls-29{mask:url(#mask-2);}.cls-30{opacity:0.1;}.cls-31{opacity:0.54;}.cls-32{fill:#51899e;}.cls-33{clip-path:url(#clip-path-2);}.cls-34{mask:url(#mask-3);}.cls-35{mask:url(#mask-4);}.cls-37{mix-blend-mode:screen;opacity:0.5;}.cls-38{fill:#2c3134;}.cls-39{opacity:0.44;}.cls-40{stroke:#e6e6e6;stroke-miterlimit:10;stroke-width:2px;}.cls-41{clip-path:url(#clip-path-3);}.cls-42{mask:url(#mask-5);}.cls-43{opacity:0.27;}.cls-44{opacity:0.08;}.cls-45{opacity:0.59;}.cls-46{opacity:0.14;}.cls-47{opacity:0.25;}.cls-48{opacity:0.36;}.cls-49{opacity:0.37;}.cls-50{opacity:0.79;}.cls-51{opacity:0.64;}.cls-52{opacity:0.69;}.cls-53{opacity:0.84;}.cls-54{opacity:0.68;}.cls-55{opacity:0.88;}.cls-56{opacity:0.58;}.cls-57{opacity:0.7;}.cls-58{mask:url(#mask-6);}.cls-59{opacity:0.21;}</style><linearGradient id="linear-gradient" x1="-7662.2" y1="-3077.36" x2="-7662.2" y2="-2660.08" gradientTransform="translate(9531.91 3346.55)" gradientUnits="userSpaceOnUse"><stop offset="0.11" stop-color="#fff"/><stop offset="0.2" stop-color="#cfcfcf"/><stop offset="0.32" stop-color="#999"/><stop offset="0.44" stop-color="#6a6a6a"/><stop offset="0.55" stop-color="#444"/><stop offset="0.67" stop-color="#262626"/><stop offset="0.78" stop-color="#111"/><stop offset="0.89" stop-color="#040404"/><stop offset="1"/></linearGradient><linearGradient id="linear-gradient-2" x1="-7533.48" y1="-3258.71" x2="-7533.48" y2="-2985.7" gradientTransform="translate(9611.54 3486.17)" xlink:href="#linear-gradient"/><linearGradient id="linear-gradient-3" x1="-12227.15" y1="49.72" x2="-12227.15" y2="407" gradientTransform="translate(12270.74 871.86)" xlink:href="#linear-gradient"/><linearGradient id="linear-gradient-4" x1="-12116.94" y1="-105.55" x2="-12116.94" y2="128.2" gradientTransform="translate(11982.14 1036.45)" xlink:href="#linear-gradient"/><linearGradient id="linear-gradient-5" x1="-9098.06" y1="-1641.5" x2="-9098.06" y2="-1224.22" gradientTransform="translate(8937.16 1910.7)" xlink:href="#linear-gradient"/><linearGradient id="linear-gradient-6" x1="-8969.34" y1="-1822.84" x2="-8969.34" y2="-1549.84" gradientTransform="translate(9016.79 2050.32)" xlink:href="#linear-gradient"/><clipPath id="clip-path"><rect class="cls-7" x="911.45" y="-8.37" width="1014.81" height="806.96" transform="translate(2837.71 790.22) rotate(-180)"/></clipPath><mask id="mask" x="764.39" y="-880.77" width="2210.79" height="2210.79" maskUnits="userSpaceOnUse"><rect class="cls-1" x="841.65" y="-310.5" width="2056.27" height="1070.25" transform="translate(706.48 -1256.35) rotate(45)"/></mask><mask id="mask-2" x="1354.92" y="-524.89" width="1446.42" height="1446.42" maskUnits="userSpaceOnUse"><rect class="cls-2" x="1405.47" y="-151.79" width="1345.33" height="700.22" transform="translate(748.9 -1411.38) rotate(45)"/></mask><clipPath id="clip-path-2"><rect class="cls-7" x="-4.65" y="391.97" width="868.89" height="690.92"/></clipPath><mask id="mask-3" x="-902.74" y="-63.04" width="1892.89" height="1892.89" maskUnits="userSpaceOnUse"><rect class="cls-3" x="-836.59" y="425.22" width="1760.59" height="916.36" transform="translate(-550.04 1538.97) rotate(-135)"/></mask><mask id="mask-4" x="-753.9" y="286.71" width="1238.44" height="1238.44" maskUnits="userSpaceOnUse"><rect class="cls-4" x="-710.62" y="606.16" width="1151.88" height="599.53" transform="translate(-870.5 1451.28) rotate(-135)"/></mask><clipPath id="clip-path-3"><rect class="cls-7" x="-1119.15" y="-8.37" width="1014.81" height="806.96" transform="translate(-1223.48 790.22) rotate(-180)"/></clipPath><mask id="mask-5" x="-1266.2" y="-880.77" width="2210.79" height="2210.79" maskUnits="userSpaceOnUse"><rect class="cls-5" x="-1188.95" y="-310.5" width="2056.27" height="1070.25" transform="translate(111.73 179.5) rotate(45)"/></mask><mask id="mask-6" x="-675.67" y="-524.89" width="1446.42" height="1446.42" maskUnits="userSpaceOnUse"><rect class="cls-6" x="-625.13" y="-151.79" width="1345.33" height="700.22" transform="translate(154.15 24.47) rotate(45)"/></mask></defs><g class="cls-8"><g id="Capa_1" data-name="Capa 1"><rect class="cls-9" x="-8.21" y="-12.9" width="1958.93" height="1097.37"/><g class="cls-10"><g class="cls-11"><g class="cls-12"><g class="cls-13"><path class="cls-14" d="M1925.89,114a22.62,22.62,0,0,1-32,0L1824.8,44.9a22.62,22.62,0,0,1,0-32l69.11-69.11a22.62,22.62,0,0,1,32,0L1995,12.92a22.62,22.62,0,0,1,0,32Z"/><path class="cls-15" d="M1663.64,109.75a22.6,22.6,0,0,1-32,0l-69.12-69.11a22.6,22.6,0,0,1,0-32l69.12-69.12a22.6,22.6,0,0,1,32,0l69.11,69.12a22.6,22.6,0,0,1,0,32Z"/><rect class="cls-16" x="1709.43" y="86.43" width="142.96" height="142.96" rx="22.61" transform="translate(409.96 1305.54) rotate(-45)"/><rect class="cls-17" x="1842.68" y="219.68" width="142.96" height="142.96" rx="22.61" transform="translate(354.76 1438.79) rotate(-45)"/><path class="cls-18" d="M1401.39,105.5a22.6,22.6,0,0,1-32,0l-69.11-69.11a22.62,22.62,0,0,1,0-32l69.11-69.11a22.6,22.6,0,0,1,32,0L1470.5,4.41a22.62,22.62,0,0,1,0,32Z"/><rect class="cls-19" x="1447.18" y="82.17" width="142.96" height="142.96" rx="22.61" transform="translate(336.16 1118.86) rotate(-45)"/><path class="cls-20" d="M1667.9,372a22.62,22.62,0,0,1-32,0l-69.11-69.11a22.62,22.62,0,0,1,0-32l69.11-69.11a22.62,22.62,0,0,1,32,0L1737,270.91a22.62,22.62,0,0,1,0,32Z"/><path class="cls-21" d="M1801.15,505.25a22.62,22.62,0,0,1-32,0l-69.11-69.11a22.6,22.6,0,0,1,0-32l69.11-69.12a22.62,22.62,0,0,1,32,0l69.11,69.12a22.6,22.6,0,0,1,0,32Z"/><path class="cls-22" d="M1934.4,638.5a22.62,22.62,0,0,1-32,0l-69.11-69.11a22.6,22.6,0,0,1,0-32l69.11-69.11a22.62,22.62,0,0,1,32,0l69.11,69.11a22.6,22.6,0,0,1,0,32Z"/><rect class="cls-23" x="1051.68" y="-55.33" width="142.96" height="142.96" rx="22.61" transform="translate(317.55 798.92) rotate(-45)"/><path class="cls-24" d="M1272.4,234.5a22.62,22.62,0,0,1-32,0l-69.11-69.12a22.6,22.6,0,0,1,0-32l69.11-69.11a22.62,22.62,0,0,1,32,0l69.11,69.11a22.6,22.6,0,0,1,0,32Z"/><rect class="cls-25" x="1318.18" y="211.17" width="142.96" height="142.96" rx="22.61" transform="translate(207.16 1065.42) rotate(-45)"/><path class="cls-26" d="M1538.9,501a22.62,22.62,0,0,1-32,0l-69.11-69.11a22.62,22.62,0,0,1,0-32l69.11-69.11a22.62,22.62,0,0,1,32,0L1608,399.91a22.62,22.62,0,0,1,0,32Z"/><path class="cls-27" d="M1672.15,634.25a22.62,22.62,0,0,1-32,0l-69.11-69.11a22.62,22.62,0,0,1,0-32l69.11-69.11a22.62,22.62,0,0,1,32,0l69.11,69.11a22.62,22.62,0,0,1,0,32Z"/><path class="cls-18" d="M1805.4,767.5a22.6,22.6,0,0,1-32,0l-69.12-69.11a22.62,22.62,0,0,1,0-32l69.12-69.11a22.6,22.6,0,0,1,32,0l69.11,69.11a22.62,22.62,0,0,1,0,32Z"/><rect class="cls-28" x="1851.19" y="744.17" width="142.96" height="142.96" rx="22.61" transform="translate(-13.62 1598.43) rotate(-45)"/></g></g><g class="cls-29"><g class="cls-13"><path class="cls-30" d="M1856.08,36a14.79,14.79,0,0,1-20.92,0L1789.94-9.24a14.81,14.81,0,0,1,0-20.92l45.22-45.21a14.79,14.79,0,0,1,20.92,0l45.22,45.21a14.79,14.79,0,0,1,0,20.92Z"/><path class="cls-15" d="M1943.26,123.16a14.79,14.79,0,0,1-20.92,0l-45.21-45.22a14.79,14.79,0,0,1,0-20.92l45.21-45.21a14.79,14.79,0,0,1,20.92,0L1988.48,57a14.79,14.79,0,0,1,0,20.92Z"/><path class="cls-31" d="M1684.5,33.2a14.81,14.81,0,0,1-20.92,0L1618.37-12a14.79,14.79,0,0,1,0-20.92l45.21-45.22a14.81,14.81,0,0,1,20.92,0l45.22,45.22a14.79,14.79,0,0,1,0,20.92Z"/><path class="cls-18" d="M1771.68,120.38a14.81,14.81,0,0,1-20.92,0l-45.21-45.22a14.79,14.79,0,0,1,0-20.92L1750.76,9a14.81,14.81,0,0,1,20.92,0l45.22,45.22a14.79,14.79,0,0,1,0,20.92Z"/><path class="cls-19" d="M1858.87,207.56a14.8,14.8,0,0,1-20.93,0l-45.21-45.22a14.79,14.79,0,0,1,0-20.92l45.21-45.22a14.82,14.82,0,0,1,20.93,0l45.21,45.22a14.79,14.79,0,0,1,0,20.92Z"/><path class="cls-20" d="M1946.05,294.74a14.79,14.79,0,0,1-20.92,0l-45.22-45.22a14.79,14.79,0,0,1,0-20.92l45.22-45.21a14.79,14.79,0,0,1,20.92,0l45.21,45.21a14.79,14.79,0,0,1,0,20.92Z"/><path class="cls-23" d="M1600.11,117.59a14.79,14.79,0,0,1-20.92,0L1534,72.38a14.79,14.79,0,0,1,0-20.92l45.22-45.22a14.79,14.79,0,0,1,20.92,0l45.21,45.22a14.79,14.79,0,0,1,0,20.92Z"/><path class="cls-24" d="M1687.29,204.77a14.79,14.79,0,0,1-20.92,0l-45.22-45.21a14.79,14.79,0,0,1,0-20.92l45.22-45.22a14.79,14.79,0,0,1,20.92,0l45.21,45.22a14.79,14.79,0,0,1,0,20.92Z"/><path class="cls-25" d="M1774.47,292a14.81,14.81,0,0,1-20.92,0l-45.22-45.22a14.79,14.79,0,0,1,0-20.92l45.22-45.22a14.79,14.79,0,0,1,20.92,0l45.21,45.22a14.79,14.79,0,0,1,0,20.92Z"/><path class="cls-26" d="M1861.65,379.14a14.81,14.81,0,0,1-20.92,0l-45.22-45.22a14.79,14.79,0,0,1,0-20.92l45.22-45.22a14.81,14.81,0,0,1,20.92,0L1906.87,313a14.81,14.81,0,0,1,0,20.92Z"/><path class="cls-27" d="M1948.83,466.32a14.81,14.81,0,0,1-20.92,0l-45.22-45.22a14.81,14.81,0,0,1,0-20.92L1927.91,355a14.81,14.81,0,0,1,20.92,0l45.22,45.22a14.81,14.81,0,0,1,0,20.92Z"/></g></g></g></g><circle class="cls-32" cx="1854.92" cy="1011.06" r="7.12" transform="translate(-171.64 1607.76) rotate(-45)"/><g class="cls-10"><g class="cls-33"><g class="cls-34"><g class="cls-13"><path class="cls-14" d="M-4.33,978.11a19.36,19.36,0,0,1,27.38,0l59.17,59.18a19.35,19.35,0,0,1,0,27.37l-59.17,59.18a19.36,19.36,0,0,1-27.38,0l-59.17-59.18a19.35,19.35,0,0,1,0-27.37Z"/><path class="cls-15" d="M220.21,981.76a19.36,19.36,0,0,1,27.38,0l59.17,59.17a19.36,19.36,0,0,1,0,27.38l-59.17,59.17a19.36,19.36,0,0,1-27.38,0L161,1068.31a19.36,19.36,0,0,1,0-27.38Z"/><rect class="cls-16" x="58.61" y="879.33" width="122.4" height="122.4" rx="19.36" transform="translate(-629.96 360.19) rotate(-45)"/><rect class="cls-17" x="-55.48" y="765.24" width="122.4" height="122.4" rx="19.36" transform="translate(-582.7 246.1) rotate(-45)"/><path class="cls-18" d="M444.75,985.4a19.36,19.36,0,0,1,27.38,0l59.17,59.17a19.36,19.36,0,0,1,0,27.38l-59.17,59.17a19.36,19.36,0,0,1-27.38,0L385.57,1072a19.36,19.36,0,0,1,0-27.38Z"/><rect class="cls-19" x="283.15" y="882.97" width="122.4" height="122.4" rx="19.36" transform="translate(-566.77 520.03) rotate(-45)"/><path class="cls-20" d="M216.57,757.22a19.35,19.35,0,0,1,27.37,0l59.18,59.17a19.36,19.36,0,0,1,0,27.38l-59.18,59.17a19.35,19.35,0,0,1-27.37,0l-59.18-59.17a19.36,19.36,0,0,1,0-27.38Z"/><path class="cls-21" d="M102.48,643.13a19.35,19.35,0,0,1,27.37,0L189,702.3a19.36,19.36,0,0,1,0,27.38l-59.18,59.17a19.35,19.35,0,0,1-27.37,0L43.3,729.68a19.36,19.36,0,0,1,0-27.38Z"/><path class="cls-22" d="M-11.61,529a19.35,19.35,0,0,1,27.37,0l59.18,59.17a19.36,19.36,0,0,1,0,27.38L15.76,674.76a19.35,19.35,0,0,1-27.37,0l-59.18-59.17a19.36,19.36,0,0,1,0-27.38Z"/><rect class="cls-23" x="621.77" y="1000.7" width="122.4" height="122.4" rx="19.36" transform="translate(-550.84 793.96) rotate(-45)"/><path class="cls-24" d="M555.2,875a19.35,19.35,0,0,1,27.37,0l59.18,59.17a19.36,19.36,0,0,1,0,27.38l-59.18,59.18a19.35,19.35,0,0,1-27.37,0L496,961.5a19.36,19.36,0,0,1,0-27.38Z"/><rect class="cls-25" x="393.59" y="772.52" width="122.4" height="122.4" rx="19.36" transform="translate(-456.32 565.78) rotate(-45)"/><path class="cls-26" d="M327,646.77a19.36,19.36,0,0,1,27.38,0l59.18,59.17a19.36,19.36,0,0,1,0,27.38l-59.18,59.17a19.36,19.36,0,0,1-27.38,0l-59.17-59.17a19.36,19.36,0,0,1,0-27.38Z"/><path class="cls-27" d="M212.92,532.68a19.36,19.36,0,0,1,27.38,0l59.18,59.17a19.36,19.36,0,0,1,0,27.38L240.3,678.4a19.36,19.36,0,0,1-27.38,0l-59.17-59.17a19.36,19.36,0,0,1,0-27.38Z"/><path class="cls-18" d="M98.83,418.59a19.36,19.36,0,0,1,27.38,0l59.17,59.17a19.34,19.34,0,0,1,0,27.38l-59.17,59.17a19.36,19.36,0,0,1-27.38,0L39.66,505.14a19.36,19.36,0,0,1,0-27.38Z"/><rect class="cls-28" x="-62.77" y="316.16" width="122.4" height="122.4" rx="19.36" transform="translate(-267.29 109.42) rotate(-45)"/></g></g><g class="cls-35"><g class="cls-13"><path class="cls-30" d="M55.44,1044.92a12.66,12.66,0,0,1,17.91,0l38.72,38.71a12.69,12.69,0,0,1,0,17.92l-38.72,38.71a12.66,12.66,0,0,1-17.91,0l-38.71-38.71a12.67,12.67,0,0,1,0-17.92Z"/><path class="cls-15" d="M-19.2,970.28a12.66,12.66,0,0,1,17.91,0L37.42,1009a12.66,12.66,0,0,1,0,17.91l-38.71,38.72a12.67,12.67,0,0,1-17.91,0l-38.72-38.72a12.67,12.67,0,0,1,0-17.91Z"/><path class="cls-31" d="M202.35,1047.3a12.67,12.67,0,0,1,17.91,0L259,1086a12.66,12.66,0,0,1,0,17.91l-38.71,38.72a12.67,12.67,0,0,1-17.91,0l-38.72-38.72a12.67,12.67,0,0,1,0-17.91Z"/><path class="cls-18" d="M127.7,972.66a12.66,12.66,0,0,1,17.91,0l38.72,38.71a12.67,12.67,0,0,1,0,17.92L145.61,1068a12.66,12.66,0,0,1-17.91,0L89,1029.29a12.67,12.67,0,0,1,0-17.92Z"/><path class="cls-19" d="M53.06,898A12.67,12.67,0,0,1,71,898l38.71,38.72a12.66,12.66,0,0,1,0,17.91L71,993.36a12.67,12.67,0,0,1-17.91,0L14.34,954.64a12.67,12.67,0,0,1,0-17.91Z"/><path class="cls-20" d="M-21.59,823.37a12.67,12.67,0,0,1,17.92,0L35,862.08A12.67,12.67,0,0,1,35,880L-3.67,918.71a12.67,12.67,0,0,1-17.92,0L-60.3,880a12.67,12.67,0,0,1,0-17.92Z"/><path class="cls-23" d="M274.61,975a12.67,12.67,0,0,1,17.91,0l38.71,38.72a12.66,12.66,0,0,1,0,17.91l-38.71,38.71a12.66,12.66,0,0,1-17.91,0l-38.72-38.71a12.67,12.67,0,0,1,0-17.91Z"/><path class="cls-24" d="M200,900.4a12.67,12.67,0,0,1,17.92,0l38.71,38.71a12.66,12.66,0,0,1,0,17.91l-38.71,38.72a12.67,12.67,0,0,1-17.92,0L161.25,957a12.66,12.66,0,0,1,0-17.91Z"/><path class="cls-25" d="M125.32,825.75a12.67,12.67,0,0,1,17.91,0L182,864.47a12.67,12.67,0,0,1,0,17.91l-38.72,38.71a12.66,12.66,0,0,1-17.91,0L86.6,882.38a12.67,12.67,0,0,1,0-17.91Z"/><path class="cls-26" d="M50.67,751.11a12.67,12.67,0,0,1,17.92,0l38.71,38.71a12.67,12.67,0,0,1,0,17.92L68.59,846.45a12.67,12.67,0,0,1-17.92,0L12,807.74a12.67,12.67,0,0,1,0-17.92Z"/><path class="cls-27" d="M-24,676.46a12.67,12.67,0,0,1,17.91,0l38.72,38.72a12.67,12.67,0,0,1,0,17.91L-6.06,771.81a12.67,12.67,0,0,1-17.91,0l-38.72-38.72a12.67,12.67,0,0,1,0-17.91Z"/></g></g></g></g><path class="cls-36" d="M44.77,1029.53a4.51,4.51,0,1,1-4.51,4.51A4.51,4.51,0,0,1,44.77,1029.53Z"/><path class="cls-36" d="M44.77,1002a4.51,4.51,0,1,1-4.51,4.51A4.51,4.51,0,0,1,44.77,1002Z"/><path class="cls-36" d="M44.77,974.55a4.51,4.51,0,1,1-4.51,4.51A4.51,4.51,0,0,1,44.77,974.55Z"/><path class="cls-36" d="M44.77,947.06a4.52,4.52,0,1,1-4.51,4.51A4.51,4.51,0,0,1,44.77,947.06Z"/><path class="cls-36" d="M44.77,919.57a4.52,4.52,0,1,1-4.51,4.52A4.51,4.51,0,0,1,44.77,919.57Z"/><path class="cls-36" d="M44.77,892.09a4.51,4.51,0,1,1-4.51,4.51A4.51,4.51,0,0,1,44.77,892.09Z"/><path class="cls-36" d="M70.85,1029.53a4.51,4.51,0,1,1-4.51,4.51A4.51,4.51,0,0,1,70.85,1029.53Z"/><path class="cls-36" d="M70.85,1002a4.51,4.51,0,1,1-4.51,4.51A4.51,4.51,0,0,1,70.85,1002Z"/><path class="cls-36" d="M70.85,974.55a4.51,4.51,0,1,1-4.51,4.51A4.51,4.51,0,0,1,70.85,974.55Z"/><path class="cls-36" d="M70.85,947.06a4.52,4.52,0,1,1-4.51,4.51A4.51,4.51,0,0,1,70.85,947.06Z"/><path class="cls-36" d="M70.85,919.57a4.52,4.52,0,1,1-4.51,4.52A4.51,4.51,0,0,1,70.85,919.57Z"/><path class="cls-36" d="M70.85,892.09a4.51,4.51,0,1,1-4.51,4.51A4.51,4.51,0,0,1,70.85,892.09Z"/><path class="cls-36" d="M96.93,1029.53a4.51,4.51,0,1,1-4.51,4.51A4.51,4.51,0,0,1,96.93,1029.53Z"/><path class="cls-36" d="M96.93,1002a4.51,4.51,0,1,1-4.51,4.51A4.51,4.51,0,0,1,96.93,1002Z"/><path class="cls-36" d="M96.93,974.55a4.51,4.51,0,1,1-4.51,4.51A4.51,4.51,0,0,1,96.93,974.55Z"/><path class="cls-36" d="M96.93,947.06a4.52,4.52,0,1,1-4.51,4.51A4.51,4.51,0,0,1,96.93,947.06Z"/><path class="cls-36" d="M96.93,919.57a4.52,4.52,0,1,1-4.51,4.52A4.51,4.51,0,0,1,96.93,919.57Z"/><path class="cls-36" d="M96.93,892.09a4.51,4.51,0,1,1-4.51,4.51A4.51,4.51,0,0,1,96.93,892.09Z"/><g class="cls-37"><rect class="cls-38" x="1787.96" y="966.14" width="60.9" height="20.83" transform="translate(2794.96 -841.85) rotate(90)"/><rect class="cls-38" x="1787.96" y="966.14" width="60.9" height="20.83"/></g><g class="cls-39"><line class="cls-40" x1="-39.33" y1="-84.22" x2="154.59" y2="100.7"/><line class="cls-40" x1="-30.62" y1="-28.64" x2="163.3" y2="156.28"/><line class="cls-40" x1="-21.91" y1="26.94" x2="172.01" y2="211.86"/></g><g class="cls-10"><g class="cls-41"><g class="cls-42"><g class="cls-13"><rect class="cls-31" x="70.08" y="-38.32" width="142.96" height="142.96" rx="22.61" transform="translate(18.01 109.81) rotate(-45)"/><path class="cls-43" d="M290.79,251.51a22.6,22.6,0,0,1-32,0L189.71,182.4a22.6,22.6,0,0,1,0-32l69.11-69.11a22.6,22.6,0,0,1,32,0l69.12,69.11a22.6,22.6,0,0,1,0,32Z"/><path class="cls-44" d="M424.05,384.77a22.63,22.63,0,0,1-32,0L323,315.65a22.6,22.6,0,0,1,0-32l69.11-69.11a22.62,22.62,0,0,1,32,0l69.11,69.11a22.6,22.6,0,0,1,0,32Z"/><path class="cls-45" d="M557.3,518a22.62,22.62,0,0,1-32,0l-69.11-69.11a22.62,22.62,0,0,1,0-32l69.11-69.11a22.62,22.62,0,0,1,32,0l69.11,69.11a22.62,22.62,0,0,1,0,32Z"/><rect class="cls-46" x="603.08" y="494.69" width="142.96" height="142.96" rx="22.61" transform="translate(-202.77 642.81) rotate(-45)"/><path class="cls-47" d="M28.55,247.26a22.62,22.62,0,0,1-32,0l-69.11-69.11a22.62,22.62,0,0,1,0-32L-3.43,77.06a22.62,22.62,0,0,1,32,0l69.11,69.11a22.62,22.62,0,0,1,0,32Z"/><rect class="cls-48" x="74.33" y="223.93" width="142.96" height="142.96" rx="22.61" transform="translate(-166.18 189.63) rotate(-45)"/><rect class="cls-49" x="207.58" y="357.18" width="142.96" height="142.96" rx="22.61" transform="translate(-221.38 322.88) rotate(-45)"/><path class="cls-50" d="M428.3,647a22.62,22.62,0,0,1-32,0L327.21,577.9a22.6,22.6,0,0,1,0-32l69.11-69.12a22.62,22.62,0,0,1,32,0l69.11,69.12a22.6,22.6,0,0,1,0,32Z"/><path class="cls-51" d="M561.55,780.26a22.6,22.6,0,0,1-32,0l-69.12-69.11a22.6,22.6,0,0,1,0-32l69.12-69.11a22.6,22.6,0,0,1,32,0l69.11,69.11a22.6,22.6,0,0,1,0,32Z"/><path class="cls-52" d="M32.8,509.51a22.62,22.62,0,0,1-32,0L-68.29,440.4a22.62,22.62,0,0,1,0-32L.82,339.31a22.62,22.62,0,0,1,32,0l69.11,69.11a22.62,22.62,0,0,1,0,32Z"/><path class="cls-53" d="M166.05,642.76a22.6,22.6,0,0,1-32,0L65,573.65a22.63,22.63,0,0,1,0-32l69.12-69.11a22.6,22.6,0,0,1,32,0l69.11,69.11a22.62,22.62,0,0,1,0,32Z"/><rect class="cls-24" x="211.84" y="619.43" width="142.96" height="142.96" rx="22.61" transform="translate(-405.57 402.7) rotate(-45)"/><rect class="cls-23" x="345.09" y="752.68" width="142.96" height="142.96" rx="22.61" transform="translate(-460.76 535.95) rotate(-45)"/><rect class="cls-31" x="-50.41" y="615.18" width="142.96" height="142.96" rx="22.61" transform="translate(-479.37 216.01) rotate(-45)"/><rect class="cls-54" x="82.84" y="748.43" width="142.96" height="142.96" rx="22.61" transform="translate(-534.56 349.27) rotate(-45)"/><path class="cls-55" d="M303.56,1038.26a22.62,22.62,0,0,1-32,0l-69.11-69.11a22.62,22.62,0,0,1,0-32l69.11-69.11a22.62,22.62,0,0,1,32,0l69.11,69.11a22.62,22.62,0,0,1,0,32Z"/><path class="cls-56" d="M41.31,1034a22.62,22.62,0,0,1-32,0l-69.11-69.11a22.6,22.6,0,0,1,0-32L9.33,863.81a22.62,22.62,0,0,1,32,0l69.11,69.11a22.6,22.6,0,0,1,0,32Z"/><path class="cls-57" d="M174.56,1167.26a22.6,22.6,0,0,1-32,0l-69.12-69.12a22.6,22.6,0,0,1,0-32l69.12-69.11a22.6,22.6,0,0,1,32,0l69.11,69.11a22.6,22.6,0,0,1,0,32Z"/></g></g><g class="cls-58"><g class="cls-13"><path class="cls-59" d="M168.64,41.55a14.81,14.81,0,0,1-20.92,0L102.51-3.67a14.79,14.79,0,0,1,0-20.92l45.21-45.22a14.81,14.81,0,0,1,20.92,0l45.22,45.22a14.79,14.79,0,0,1,0,20.92Z"/><path class="cls-31" d="M255.82,128.73a14.79,14.79,0,0,1-20.92,0L189.69,83.51a14.79,14.79,0,0,1,0-20.92L234.9,17.37a14.81,14.81,0,0,1,20.92,0L301,62.59a14.79,14.79,0,0,1,0,20.92Z"/><path class="cls-43" d="M343,215.91a14.79,14.79,0,0,1-20.92,0l-45.21-45.22a14.79,14.79,0,0,1,0-20.92l45.21-45.21a14.79,14.79,0,0,1,20.92,0l45.22,45.21a14.79,14.79,0,0,1,0,20.92Z"/><path class="cls-44" d="M430.18,303.09a14.79,14.79,0,0,1-20.92,0l-45.21-45.22a14.79,14.79,0,0,1,0-20.92l45.21-45.21a14.79,14.79,0,0,1,20.92,0L475.4,237a14.79,14.79,0,0,1,0,20.92Z"/><path class="cls-45" d="M517.37,390.27a14.8,14.8,0,0,1-20.93,0l-45.21-45.22a14.79,14.79,0,0,1,0-20.92l45.21-45.21a14.8,14.8,0,0,1,20.93,0l45.21,45.21a14.79,14.79,0,0,1,0,20.92Z"/><path class="cls-46" d="M604.55,477.45a14.79,14.79,0,0,1-20.92,0l-45.22-45.22a14.79,14.79,0,0,1,0-20.92l45.22-45.21a14.79,14.79,0,0,1,20.92,0l45.21,45.21a14.79,14.79,0,0,1,0,20.92Z"/><path class="cls-57" d="M-2.94,38.76a14.79,14.79,0,0,1-20.92,0L-69.07-6.45a14.79,14.79,0,0,1,0-20.92l45.21-45.22a14.79,14.79,0,0,1,20.92,0L42.28-27.37a14.79,14.79,0,0,1,0,20.92Z"/><path class="cls-14" d="M84.25,125.94a14.8,14.8,0,0,1-20.93,0L18.11,80.73a14.79,14.79,0,0,1,0-20.92L63.32,14.59a14.8,14.8,0,0,1,20.93,0l45.21,45.22a14.79,14.79,0,0,1,0,20.92Z"/><path class="cls-47" d="M171.43,213.13a14.81,14.81,0,0,1-20.92,0l-45.22-45.22a14.79,14.79,0,0,1,0-20.92l45.22-45.22a14.79,14.79,0,0,1,20.92,0L216.64,147a14.79,14.79,0,0,1,0,20.92Z"/><path class="cls-48" d="M258.61,300.31a14.81,14.81,0,0,1-20.92,0l-45.22-45.22a14.79,14.79,0,0,1,0-20.92L237.69,189a14.81,14.81,0,0,1,20.92,0l45.21,45.22a14.79,14.79,0,0,1,0,20.92Z"/><path class="cls-49" d="M345.79,387.49a14.81,14.81,0,0,1-20.92,0l-45.22-45.22a14.79,14.79,0,0,1,0-20.92l45.22-45.22a14.81,14.81,0,0,1,20.92,0L391,321.35a14.79,14.79,0,0,1,0,20.92Z"/><path class="cls-50" d="M433,474.67a14.81,14.81,0,0,1-20.92,0l-45.22-45.22a14.79,14.79,0,0,1,0-20.92l45.22-45.22a14.81,14.81,0,0,1,20.92,0l45.21,45.22a14.79,14.79,0,0,1,0,20.92Z"/><path class="cls-51" d="M520.15,561.85a14.79,14.79,0,0,1-20.92,0L454,516.63a14.79,14.79,0,0,1,0-20.92l45.22-45.22a14.81,14.81,0,0,1,20.92,0l45.22,45.22a14.81,14.81,0,0,1,0,20.92Z"/><path class="cls-16" d="M-.15,210.34a14.79,14.79,0,0,1-20.92,0l-45.22-45.22a14.79,14.79,0,0,1,0-20.92L-21.07,99A14.79,14.79,0,0,1-.15,99L45.06,144.2a14.79,14.79,0,0,1,0,20.92Z"/><path class="cls-17" d="M87,297.52a14.79,14.79,0,0,1-20.92,0L20.89,252.31a14.79,14.79,0,0,1,0-20.92l45.22-45.22a14.79,14.79,0,0,1,20.92,0l45.22,45.22a14.81,14.81,0,0,1,0,20.92Z"/><path class="cls-52" d="M174.21,384.7a14.79,14.79,0,0,1-20.92,0l-45.22-45.21a14.81,14.81,0,0,1,0-20.92l45.22-45.22a14.79,14.79,0,0,1,20.92,0l45.22,45.22a14.81,14.81,0,0,1,0,20.92Z"/><path class="cls-53" d="M261.39,471.88a14.79,14.79,0,0,1-20.92,0l-45.22-45.21a14.81,14.81,0,0,1,0-20.92l45.22-45.22a14.79,14.79,0,0,1,20.92,0l45.22,45.22a14.81,14.81,0,0,1,0,20.92Z"/><path class="cls-24" d="M348.57,559.06a14.79,14.79,0,0,1-20.92,0l-45.22-45.21a14.81,14.81,0,0,1,0-20.92l45.22-45.22a14.79,14.79,0,0,1,20.92,0l45.22,45.22a14.81,14.81,0,0,1,0,20.92Z"/><path class="cls-23" d="M435.75,646.25a14.81,14.81,0,0,1-20.92,0L369.61,601a14.81,14.81,0,0,1,0-20.92l45.22-45.22a14.79,14.79,0,0,1,20.92,0L481,580.11A14.79,14.79,0,0,1,481,601Z"/><path class="cls-21" d="M2.63,381.92a14.79,14.79,0,0,1-20.92,0L-63.51,336.7a14.81,14.81,0,0,1,0-20.92l45.22-45.21a14.79,14.79,0,0,1,20.92,0l45.22,45.21a14.79,14.79,0,0,1,0,20.92Z"/><path class="cls-22" d="M89.81,469.1a14.79,14.79,0,0,1-20.92,0L23.68,423.88a14.79,14.79,0,0,1,0-20.92l45.21-45.21a14.79,14.79,0,0,1,20.92,0L135,403a14.79,14.79,0,0,1,0,20.92Z"/><path class="cls-31" d="M177,556.28a14.79,14.79,0,0,1-20.92,0l-45.21-45.22a14.79,14.79,0,0,1,0-20.92l45.21-45.21a14.79,14.79,0,0,1,20.92,0l45.22,45.21a14.79,14.79,0,0,1,0,20.92Z"/><path class="cls-54" d="M264.17,643.46a14.79,14.79,0,0,1-20.92,0L198,598.25a14.8,14.8,0,0,1,0-20.93l45.21-45.21a14.79,14.79,0,0,1,20.92,0l45.22,45.21a14.8,14.8,0,0,1,0,20.93Z"/><path class="cls-55" d="M351.35,730.64a14.79,14.79,0,0,1-20.92,0l-45.21-45.21a14.79,14.79,0,0,1,0-20.92l45.21-45.22a14.79,14.79,0,0,1,20.92,0l45.22,45.22a14.79,14.79,0,0,1,0,20.92Z"/><path class="cls-18" d="M5.42,553.5a14.82,14.82,0,0,1-20.93,0l-45.21-45.22a14.79,14.79,0,0,1,0-20.92l45.21-45.22a14.82,14.82,0,0,1,20.93,0l45.21,45.22a14.79,14.79,0,0,1,0,20.92Z"/><path class="cls-28" d="M92.6,640.68a14.81,14.81,0,0,1-20.92,0L26.46,595.46a14.79,14.79,0,0,1,0-20.92l45.22-45.22a14.81,14.81,0,0,1,20.92,0l45.21,45.22a14.79,14.79,0,0,1,0,20.92Z"/><path class="cls-56" d="M179.78,727.86a14.79,14.79,0,0,1-20.92,0l-45.22-45.22a14.79,14.79,0,0,1,0-20.92l45.22-45.21a14.79,14.79,0,0,1,20.92,0L225,661.72a14.79,14.79,0,0,1,0,20.92Z"/><path class="cls-57" d="M267,815A14.79,14.79,0,0,1,246,815l-45.22-45.22a14.79,14.79,0,0,1,0-20.92L246,703.69a14.79,14.79,0,0,1,20.92,0l45.21,45.21a14.79,14.79,0,0,1,0,20.92Z"/></g></g></g></g></g></g></svg>