<svg xmlns="http://www.w3.org/2000/svg" xmlns:xlink="http://www.w3.org/1999/xlink" viewBox="0 0 1080 1080"><defs><style>.cls-1{fill:url(#linear-gradient);}.cls-2{fill:url(#linear-gradient-2);}.cls-3{fill:url(#linear-gradient-3);}.cls-4{fill:none;}.cls-5{isolation:isolate;}.cls-6{mix-blend-mode:exclusion;}.cls-18,.cls-6{opacity:0.26;}.cls-7{clip-path:url(#clip-path);}.cls-8{mask:url(#mask);}.cls-9{mix-blend-mode:color-dodge;}.cls-10{mask:url(#mask-2);}.cls-11,.cls-18,.cls-19{fill:#50899c;}.cls-12{font-size:74.24px;font-family:Axiforma-Black, Axiforma;font-weight:800;letter-spacing:0.15em;}.cls-12,.cls-13{fill:#e6e6e6;}.cls-13{font-size:258.23px;font-family:Axiforma-Bold, Axiforma;font-weight:700;}.cls-14{letter-spacing:-0.02em;}.cls-15{letter-spacing:0em;}.cls-16{clip-path:url(#clip-path-2);}.cls-17{mask:url(#mask-3);}.cls-19{opacity:0.52;}</style><linearGradient id="linear-gradient" x1="-10616.55" y1="-1212.43" x2="-10616.55" y2="-855.16" gradientTransform="translate(12270.76 871.85)" gradientUnits="userSpaceOnUse"><stop offset="0.11" stop-color="#fff"/><stop offset="0.2" stop-color="#cfcfcf"/><stop offset="0.32" stop-color="#999"/><stop offset="0.44" stop-color="#6a6a6a"/><stop offset="0.55" stop-color="#444"/><stop offset="0.67" stop-color="#262626"/><stop offset="0.78" stop-color="#111"/><stop offset="0.89" stop-color="#040404"/><stop offset="1"/></linearGradient><linearGradient id="linear-gradient-2" x1="-10506.34" y1="-1367.7" x2="-10506.34" y2="-1133.95" gradientTransform="translate(11982.15 1036.44)" xlink:href="#linear-gradient"/><linearGradient id="linear-gradient-3" x1="-9180.69" y1="-2648.29" x2="-9180.69" y2="-2291.02" gradientTransform="translate(8804.31 2307.69)" xlink:href="#linear-gradient"/><clipPath id="clip-path"><rect class="cls-4" x="1605.95" y="-870.18" width="868.89" height="690.92"/></clipPath><mask id="mask" x="707.86" y="-1325.2" width="1892.89" height="1892.89" maskUnits="userSpaceOnUse"><rect class="cls-1" x="774.01" y="-836.93" width="1760.59" height="916.36" transform="translate(3091.89 523.2) rotate(-135)"/></mask><mask id="mask-2" x="856.7" y="-975.45" width="1238.44" height="1238.44" maskUnits="userSpaceOnUse"><rect class="cls-2" x="899.97" y="-655.99" width="1151.88" height="599.53" transform="translate(2771.43 435.51) rotate(-135)"/></mask><clipPath id="clip-path-2"><rect class="cls-4" x="-424.65" y="-870.18" width="868.89" height="690.92"/></clipPath><mask id="mask-3" x="-1322.74" y="-1325.2" width="1892.89" height="1892.89" maskUnits="userSpaceOnUse"><rect class="cls-3" x="-1256.59" y="-836.93" width="1760.59" height="916.36" transform="translate(-374.55 -912.65) rotate(-135)"/></mask></defs><g class="cls-5"><g id="Capa_1" data-name="Capa 1"><path class="cls-11" d="M540,188.48a129.45,129.45,0,0,0-8.88,258.59c-.07-6.66-.18-12.93.1-19.18a370.13,370.13,0,0,1,9-64.74,12.3,12.3,0,0,0-1.81-8.89c-16.07-21.91-27.89-46.19-39.93-70.36-.45-.91-.92-1.8-1.38-2.69-2.49-4.82-4.55-5.15-8.11-.86a93.3,93.3,0,0,0-9,12.12c-7.95,13.55-15.85,27.15-23.07,41.1-1.44,2.79-1,7.89.67,10.74,12.78,22.22,26.08,44.14,39.16,66.19,2.43,4.09,4.56,8.37,6.83,12.57l-1,.81c-5.33-5.34-11.06-10.35-15.91-16.1-13.4-15.87-26.13-32.31-39.71-48-10.47-12.12-10-24.38-2.92-37.58C458.05,296,473,270.35,492.87,248c5.1-5.73,7.54-5.62,10.85,1.43,5.69,12.11,10.85,24.48,16.48,36.63a165.79,165.79,0,0,0,8.92,16.82q13.78,22.51,28.06,44.73a9,9,0,0,1,.7,9.42c-6.76,15.05-11.81,30.63-14.09,47a30.14,30.14,0,0,0,0,3.92l1.45.26c2.42-5.23,4.71-10.52,7.29-15.68,5.78-11.54,14.24-21,23.36-30,4.73-4.65,4.91-7.3,2.2-13.51-7.14-16.43-14.8-32.67-21.09-49.42-4.52-12-7.1-24.77-10.72-37.15-.61-2.07-1.81-5.14-3.27-5.48-1.64-.38-4.1,1.53-5.81,2.94-3.62,3-7,6.27-10.88,9.83-1.61-2.95-3.58-6.31-5.22-9.83-.33-.71.33-2.32,1-3,8.93-8.57,17.79-17.24,27-25.48,3.87-3.44,5.39-2.57,6.48,2.7,2.9,14.12,4.72,28.55,8.84,42.29,4.79,16,11.27,31.52,17.57,47,4,9.77,8.76,19.23,13.58,28.63,3.39,6.61,1,11.49-3.47,16.23-4.71,5-9.52,9.93-13.87,15.23-4.14,5.05-7.79,10.5-11.55,15.85-.46.65-.25,1.77-.49,3.86,4-2.69,7.22-4.61,10.16-6.92a99.37,99.37,0,0,1,29.11-15.62c7.82-2.75,8.49-3.79,7.36-12.08-1.33-9.8-3.41-19.52-4.37-29.35-2.1-21.69-3.75-43.43-5.48-65.16-.44-5.52-.48-11.07-.81-16.59-.26-4.49-2.44-5.72-6.3-3.23-5.91,3.79-11.6,7.93-18.61,12.77-1.27-5.32-2.51-9.85-3.3-14.44-.14-.81,1.37-2.23,2.43-2.85,11-6.43,21.92-12.94,33.08-19,5.41-2.95,7.27-1.72,7.37,4.57.24,15.46-.63,31,.48,46.36,1.74,24.05,4.66,48,7.28,72,1,8.83,2.42,17.61,3.8,26.39.68,4.38-.82,6.77-5.19,8.22-20.59,6.85-40.75,14.92-57.92,28.46-8.07,6.36-14.87,14.39-21.94,21.95-2.5,2.68-4.81,5.57-7.16,8.57,1.26,0,2.51.1,3.77.1a129.47,129.47,0,0,0,0-258.93"/><text class="cls-12" transform="translate(372.53 556.93)">GRUPO</text><text class="cls-13" transform="translate(125.8 801.14)">leh<tspan class="cls-14" x="396.64" y="0">r</tspan><tspan class="cls-15" x="500.7" y="0">en</tspan></text><g class="cls-6"><g class="cls-16"><g class="cls-17"><g class="cls-9"><path class="cls-18" d="M-82.06,58.23a19.36,19.36,0,0,1,27.38,0L4.49,117.4a19.36,19.36,0,0,1,0,27.38L-54.68,204a19.36,19.36,0,0,1-27.38,0l-59.17-59.18a19.36,19.36,0,0,1,0-27.38Z"/><rect class="cls-19" x="-19.12" y="-40.56" width="122.4" height="122.4" rx="19.36" transform="translate(-2.27 35.8) rotate(-45)"/></g></g></g></g></g></g></svg>