<svg id="Capa_1" data-name="Capa 1" xmlns="http://www.w3.org/2000/svg" viewBox="0 0 1080 318.52"><defs><style>.cls-1,.cls-3{fill:#e6e6e6;}.cls-2{fill:#50899c;}.cls-3{font-size:52.98px;font-family:Axiforma-Black, Axiforma;font-weight:800;letter-spacing:0.15em;}</style></defs><rect class="cls-1" x="355.23" y="109.97" width="30.51" height="164.47"/><path class="cls-1" d="M526.62,226.19H438.11c4.33,16.66,15.8,25.1,34.41,25.1,12.77,0,27.92-5,38.09-11.9l12.12,21.42C507.8,271.63,490.7,277,471.22,277c-20.77,0-36.57-6.06-47.61-18s-16.44-26.62-16.44-43.71c0-18,5.62-32.68,17.09-44.37s26.19-17.53,44.37-17.53c17.09,0,31.38,5.41,42.41,16s16.67,24.88,16.67,43.28a101.48,101.48,0,0,1-1.09,13.42m-88.51-22.73h59.95c-2.82-15.36-13.85-24.67-29.43-24.67-15.37,0-26.84,9.31-30.52,24.67"/><path class="cls-1" d="M548.7,274.45V110h29.65v61.9c6.27-10.61,20.55-18.61,37.22-18.61,12.77,0,23.59,4.33,32.46,12.77s13.42,20.55,13.42,36.35v72.07H630.93V210.6c0-18.82-9.74-29.21-24.67-29.21-16.23,0-27,12.33-27,29.86v63.2Z"/><path class="cls-1" d="M687.63,274.45V156.5h29.22v15.8c7.14-12.77,18-19,32.46-19a41.55,41.55,0,0,1,14.28,2.59L761,185.07a48.86,48.86,0,0,0-14.06-2.38c-17.31,0-28.78,11.25-28.78,35.71v56Z"/><path class="cls-1" d="M888,226.19H799.52c4.32,16.66,15.79,25.1,34.41,25.1,12.76,0,27.91-5,38.08-11.9l12.12,21.42c-14.93,10.82-32,16.23-51.5,16.23-20.78,0-36.58-6.06-47.61-18s-16.45-26.62-16.45-43.71c0-18,5.63-32.68,17.09-44.37s26.19-17.53,44.37-17.53c17.09,0,31.38,5.41,42.42,16s16.66,24.88,16.66,43.28A101.38,101.38,0,0,1,888,226.19m-88.51-22.73h59.94c-2.81-15.36-13.85-24.67-29.43-24.67-15.37,0-26.84,9.31-30.51,24.67"/><path class="cls-1" d="M910.1,274.45V156.5H940V173c6.28-11.47,20.35-19.69,37-19.69,12.77,0,23.81,4.33,32.68,12.77s13.42,20.55,13.42,36.35v72.07H992.55V210.6c0-18.82-9.95-29.21-24.88-29.21-16.24,0-27.06,12.33-27.06,29.86v63.2Z"/><path class="cls-2" d="M168,51.42a111,111,0,0,0-7.62,221.83c-.06-5.72-.15-11.1.09-16.46a318.29,318.29,0,0,1,7.73-55.54,10.58,10.58,0,0,0-1.55-7.62c-13.79-18.8-23.93-39.63-34.25-60.36-.39-.77-.79-1.54-1.19-2.3-2.13-4.14-3.91-4.43-7-.74a80.66,80.66,0,0,0-7.7,10.39c-6.82,11.63-13.6,23.3-19.79,35.26-1.24,2.39-.83,6.77.58,9.22,11,19.06,22.37,37.85,33.58,56.77,2.09,3.52,3.92,7.18,5.87,10.78l-.88.7c-4.57-4.58-9.48-8.88-13.65-13.81-11.49-13.62-22.42-27.72-34.06-41.19-9-10.4-8.54-20.91-2.5-32.24,12-22.5,24.81-44.46,41.87-63.64,4.38-4.9,6.47-4.81,9.31,1.23,4.88,10.4,9.31,21,14.14,31.43a141.12,141.12,0,0,0,7.65,14.43q11.82,19.31,24.07,38.36a7.7,7.7,0,0,1,.6,8.08,147.93,147.93,0,0,0-12.08,40.35,23.68,23.68,0,0,0,0,3.37l1.24.23c2.08-4.49,4-9,6.26-13.45,5-9.91,12.21-18,20-25.75,4-4,4.2-6.25,1.88-11.58-6.13-14.09-12.7-28-18.09-42.4-3.88-10.31-6.09-21.24-9.2-31.86-.52-1.78-1.55-4.41-2.8-4.7-1.41-.32-3.52,1.31-5,2.52-3.11,2.55-6,5.38-9.34,8.43-1.38-2.53-3.07-5.41-4.48-8.43a3,3,0,0,1,.88-2.56c7.67-7.36,15.27-14.8,23.2-21.86,3.32-3,4.63-2.21,5.56,2.31,2.49,12.11,4,24.49,7.58,36.28,4.11,13.72,9.67,27,15.07,40.33,3.41,8.38,7.52,16.49,11.65,24.55,2.91,5.68.87,9.86-3,13.93-4,4.29-8.16,8.52-11.89,13.06-3.56,4.33-6.69,9-9.91,13.6-.39.56-.22,1.52-.42,3.31,3.41-2.31,6.2-4,8.71-5.94a85.59,85.59,0,0,1,25-13.4c6.71-2.35,7.29-3.25,6.32-10.36-1.14-8.41-2.93-16.74-3.75-25.18-1.8-18.6-3.21-37.25-4.7-55.89-.38-4.73-.41-9.49-.69-14.23-.23-3.85-2.1-4.9-5.41-2.78-5.06,3.26-9.94,6.81-16,11-1.09-4.56-2.15-8.44-2.84-12.39-.12-.68,1.19-1.91,2.09-2.44,9.42-5.52,18.8-11.1,28.38-16.32,4.64-2.53,6.24-1.48,6.32,3.92.21,13.26-.54,26.57.41,39.77,1.5,20.63,4,41.19,6.24,61.77.83,7.57,2.08,15.1,3.26,22.63.59,3.76-.7,5.81-4.45,7.06-17.66,5.87-35,12.79-49.68,24.41-6.92,5.45-12.76,12.34-18.82,18.82-2.15,2.31-4.13,4.79-6.14,7.36,1.07,0,2.15.08,3.23.08a111.06,111.06,0,1,0,0-222.11"/><text class="cls-3" transform="translate(351.29 82.56)">GRUPO</text></svg>